<svg width="19" height="18" viewBox="0 0 19 18" fill="none" xmlns="http://www.w3.org/2000/svg">
<path d="M9.04133 1.00278e-05C7.2637 0.00178968 5.52651 0.531143 4.04933 1.52116C2.57216 2.51117 1.42131 3.9174 0.742279 5.56209C0.0632429 7.20678 -0.113502 9.0161 0.234384 10.7613C0.582271 12.5066 1.43917 14.1094 2.69677 15.3671C3.95437 16.6249 5.55621 17.4812 7.2998 17.8277C9.0434 18.1743 10.8505 17.9955 12.4926 17.3141C14.1348 16.6326 15.5382 15.4791 16.5257 13.9992C17.5131 12.5194 18.0401 10.7797 18.0401 9.00001C18.0407 7.81719 17.8082 6.64587 17.3561 5.55309C16.904 4.46031 16.241 3.46752 15.4052 2.63156C14.5693 1.7956 13.577 1.13288 12.485 0.681321C11.393 0.229765 10.2228 -0.00175601 9.04133 1.00278e-05ZM9.05032 16C7.66742 16 6.31558 15.5895 5.16575 14.8203C4.01591 14.0511 3.11972 12.9579 2.59051 11.6788C2.0613 10.3997 1.92284 8.99224 2.19263 7.63438C2.46242 6.27651 3.12834 5.02923 4.1062 4.05026C5.08405 3.07129 6.32991 2.40461 7.68624 2.13451C9.04256 1.86442 10.4484 2.00304 11.7261 2.53285C13.0037 3.06267 14.0957 3.95987 14.864 5.11102C15.6323 6.26216 16.0424 7.61554 16.0424 9.00001C16.0426 9.91933 15.8619 10.8297 15.5106 11.6791C15.1593 12.5285 14.6443 13.3003 13.995 13.9503C13.3457 14.6004 12.5748 15.116 11.7264 15.4677C10.8779 15.8194 9.96859 16.0003 9.05032 16ZM12.1518 10.8H13.6531C13.2919 11.728 12.6593 12.5252 11.838 13.0873C11.0168 13.6493 10.0451 13.95 9.05032 13.95C8.0555 13.95 7.08387 13.6493 6.2626 13.0873C5.44134 12.5252 4.80872 11.728 4.44756 10.8H5.94885C6.26168 11.3469 6.71324 11.8014 7.25785 12.1175C7.80247 12.4335 8.42081 12.6 9.05032 12.6C9.67982 12.6 10.2982 12.4335 10.8428 12.1175C11.3874 11.8014 11.839 11.3469 12.1518 10.8ZM4.55543 6.75001C4.55543 6.48301 4.63452 6.222 4.78269 5.99999C4.93086 5.77798 5.14146 5.60495 5.38786 5.50277C5.63426 5.40059 5.90539 5.37386 6.16697 5.42595C6.42855 5.47804 6.66882 5.60661 6.85741 5.79542C7.04599 5.98422 7.17442 6.22476 7.22645 6.48664C7.27848 6.74851 7.25178 7.01995 7.14972 7.26663C7.04766 7.51331 6.87482 7.72415 6.65306 7.87249C6.43131 8.02083 6.1706 8.10001 5.9039 8.10001C5.54626 8.10001 5.20328 7.95778 4.95039 7.7046C4.6975 7.45143 4.55543 7.10805 4.55543 6.75001ZM10.8483 6.75001C10.8483 6.48301 10.9274 6.222 11.0755 5.99999C11.2237 5.77798 11.4343 5.60495 11.6807 5.50277C11.9271 5.40059 12.1982 5.37386 12.4598 5.42595C12.7214 5.47804 12.9617 5.60661 13.1502 5.79542C13.3388 5.98422 13.4673 6.22476 13.5193 6.48664C13.5713 6.74851 13.5446 7.01995 13.4426 7.26663C13.3405 7.51331 13.1677 7.72415 12.9459 7.87249C12.7241 8.02083 12.4634 8.10001 12.1967 8.10001C11.8391 8.10001 11.4961 7.95778 11.2432 7.7046C10.9903 7.45143 10.8483 7.10805 10.8483 6.75001Z" fill="#344563" fill-opacity="0.7"/>
</svg>
