<svg width="21" height="16" viewBox="0 0 21 16" fill="none" xmlns="http://www.w3.org/2000/svg">
<path d="M12.2877 7L16.0834 12H4.09701L7.0936 8.1L9.19121 10.8L12.0879 7H12.2877ZM6.59417 7C7.39326 7 8.09247 6.3 8.09247 5.5C8.09247 4.7 7.39326 4 6.59417 4C5.79508 4 5.09588 4.7 5.09588 5.5C5.09588 6.3 5.79508 7 6.59417 7ZM20.0788 2V14C20.0788 15.1 19.1798 16 18.0811 16H2.09929C1.00054 16 0.101562 15.1 0.101562 14V2C0.101562 0.9 1.00054 0 2.09929 0H18.0811C19.1798 0 20.0788 0.9 20.0788 2ZM18.0811 4.8V2H2.09929V14H18.0811V4.8Z" fill="#344563" fill-opacity="0.7"/>
</svg>
